<mxfile host="app.diagrams.net" agent="Mozilla/5.0 (Macintosh; Intel Mac OS X 10_15_7) AppleWebKit/537.36 (KHTML, like Gecko) Chrome/127.0.0.0 Safari/537.36" version="24.7.7">
  <diagram name="第 1 页" id="TfHJkevkc9A7aDuGqF7o">
    <mxGraphModel dx="984" dy="545" grid="1" gridSize="10" guides="1" tooltips="1" connect="1" arrows="1" fold="1" page="1" pageScale="1" pageWidth="827" pageHeight="1169" math="0" shadow="0">
      <root>
        <mxCell id="0" />
        <mxCell id="1" parent="0" />
        <mxCell id="TPlm3mmLFZpDYCI5alrE-1" value="query: 30 麦当劳 午饭" style="rounded=0;whiteSpace=wrap;html=1;fillColor=#d5e8d4;strokeColor=#82b366;" vertex="1" parent="1">
          <mxGeometry x="20" y="235" width="140" height="35" as="geometry" />
        </mxCell>
        <mxCell id="TPlm3mmLFZpDYCI5alrE-2" style="edgeStyle=orthogonalEdgeStyle;rounded=0;orthogonalLoop=1;jettySize=auto;html=1;exitX=0.5;exitY=1;exitDx=0;exitDy=0;entryX=0.5;entryY=0;entryDx=0;entryDy=0;" edge="1" parent="1" source="TPlm3mmLFZpDYCI5alrE-4" target="TPlm3mmLFZpDYCI5alrE-14">
          <mxGeometry relative="1" as="geometry" />
        </mxCell>
        <mxCell id="TPlm3mmLFZpDYCI5alrE-3" value="查询原始数据" style="edgeLabel;html=1;align=center;verticalAlign=middle;resizable=0;points=[];" vertex="1" connectable="0" parent="TPlm3mmLFZpDYCI5alrE-2">
          <mxGeometry x="-0.2667" y="1" relative="1" as="geometry">
            <mxPoint x="-1" y="8" as="offset" />
          </mxGeometry>
        </mxCell>
        <mxCell id="TPlm3mmLFZpDYCI5alrE-16" value="" style="edgeStyle=orthogonalEdgeStyle;rounded=0;orthogonalLoop=1;jettySize=auto;html=1;" edge="1" parent="1" source="TPlm3mmLFZpDYCI5alrE-4" target="TPlm3mmLFZpDYCI5alrE-14">
          <mxGeometry relative="1" as="geometry" />
        </mxCell>
        <mxCell id="TPlm3mmLFZpDYCI5alrE-4" value="result: 麦当劳 晚饭 微信 餐饮" style="rounded=0;whiteSpace=wrap;html=1;fillColor=#d5e8d4;strokeColor=#82b366;" vertex="1" parent="1">
          <mxGeometry x="502" y="235" width="180" height="35" as="geometry" />
        </mxCell>
        <mxCell id="TPlm3mmLFZpDYCI5alrE-5" value="" style="group" vertex="1" connectable="0" parent="1">
          <mxGeometry x="190" y="190" width="180" height="180" as="geometry" />
        </mxCell>
        <mxCell id="TPlm3mmLFZpDYCI5alrE-6" value="" style="shape=cylinder3;whiteSpace=wrap;html=1;boundedLbl=1;backgroundOutline=1;size=15;fillColor=#d5e8d4;strokeColor=#82b366;" vertex="1" parent="TPlm3mmLFZpDYCI5alrE-5">
          <mxGeometry x="10" width="160" height="180" as="geometry" />
        </mxCell>
        <mxCell id="TPlm3mmLFZpDYCI5alrE-7" value="麦当劳 晚饭 微信 餐饮" style="text;html=1;align=center;verticalAlign=middle;resizable=0;points=[];autosize=1;strokeColor=none;fillColor=none;" vertex="1" parent="TPlm3mmLFZpDYCI5alrE-5">
          <mxGeometry x="20" y="61.36363636363637" width="140" height="30" as="geometry" />
        </mxCell>
        <mxCell id="TPlm3mmLFZpDYCI5alrE-8" value="哈啰单车 自行车 支付宝 出行" style="text;html=1;align=center;verticalAlign=middle;resizable=0;points=[];autosize=1;strokeColor=none;fillColor=none;" vertex="1" parent="TPlm3mmLFZpDYCI5alrE-5">
          <mxGeometry y="85.90909090909092" width="180" height="30" as="geometry" />
        </mxCell>
        <mxCell id="TPlm3mmLFZpDYCI5alrE-9" value="……" style="text;html=1;align=center;verticalAlign=middle;resizable=0;points=[];autosize=1;strokeColor=none;fillColor=none;" vertex="1" parent="TPlm3mmLFZpDYCI5alrE-5">
          <mxGeometry x="65" y="110.45454545454547" width="50" height="30" as="geometry" />
        </mxCell>
        <mxCell id="TPlm3mmLFZpDYCI5alrE-10" style="edgeStyle=orthogonalEdgeStyle;rounded=0;orthogonalLoop=1;jettySize=auto;html=1;exitX=1;exitY=0;exitDx=0;exitDy=62.5;exitPerimeter=0;entryX=0;entryY=0.5;entryDx=0;entryDy=0;" edge="1" parent="1" source="TPlm3mmLFZpDYCI5alrE-6" target="TPlm3mmLFZpDYCI5alrE-4">
          <mxGeometry relative="1" as="geometry" />
        </mxCell>
        <mxCell id="TPlm3mmLFZpDYCI5alrE-11" style="edgeStyle=orthogonalEdgeStyle;rounded=0;orthogonalLoop=1;jettySize=auto;html=1;exitX=1;exitY=0.5;exitDx=0;exitDy=0;entryX=0;entryY=0;entryDx=0;entryDy=62.5;entryPerimeter=0;" edge="1" parent="1" source="TPlm3mmLFZpDYCI5alrE-1" target="TPlm3mmLFZpDYCI5alrE-6">
          <mxGeometry relative="1" as="geometry" />
        </mxCell>
        <mxCell id="TPlm3mmLFZpDYCI5alrE-14" value="&lt;span style=&quot;font-family: Menlo, Monaco, Consolas, &amp;quot;Courier New&amp;quot;, monospace; font-size: 12.15px; white-space-collapse: preserve;&quot;&gt;2023-05-02 * &quot;麦当劳&quot; &quot;晚饭&quot;&lt;/span&gt;&lt;br style=&quot;--tw-border-spacing-x: 0; --tw-border-spacing-y: 0; --tw-translate-x: 0; --tw-translate-y: 0; --tw-rotate: 0; --tw-skew-x: 0; --tw-skew-y: 0; --tw-scale-x: 1; --tw-scale-y: 1; --tw-pan-x: ; --tw-pan-y: ; --tw-pinch-zoom: ; --tw-scroll-snap-strictness: proximity; --tw-ordinal: ; --tw-slashed-zero: ; --tw-numeric-figure: ; --tw-numeric-spacing: ; --tw-numeric-fraction: ; --tw-ring-inset: ; --tw-ring-offset-width: 0px; --tw-ring-offset-color: #fff; --tw-ring-color: rgb(59 130 246 / .5); --tw-ring-offset-shadow: 0 0 #0000; --tw-ring-shadow: 0 0 #0000; --tw-shadow: 0 0 #0000; --tw-shadow-colored: 0 0 #0000; --tw-blur: ; --tw-brightness: ; --tw-contrast: ; --tw-grayscale: ; --tw-hue-rotate: ; --tw-invert: ; --tw-saturate: ; --tw-sepia: ; --tw-drop-shadow: ; --tw-backdrop-blur: ; --tw-backdrop-brightness: ; --tw-backdrop-contrast: ; --tw-backdrop-grayscale: ; --tw-backdrop-hue-rotate: ; --tw-backdrop-invert: ; --tw-backdrop-opacity: ; --tw-backdrop-saturate: ; --tw-backdrop-sepia: ; font-family: Menlo, Monaco, Consolas, &amp;quot;Courier New&amp;quot;, monospace; font-size: 12.15px; white-space-collapse: preserve;&quot;&gt;&lt;span style=&quot;font-family: Menlo, Monaco, Consolas, &amp;quot;Courier New&amp;quot;, monospace; font-size: 12.15px; white-space-collapse: preserve;&quot;&gt;  Assets:Checking:微信支付:Deposit   -50.00 CNY&lt;/span&gt;&lt;br style=&quot;--tw-border-spacing-x: 0; --tw-border-spacing-y: 0; --tw-translate-x: 0; --tw-translate-y: 0; --tw-rotate: 0; --tw-skew-x: 0; --tw-skew-y: 0; --tw-scale-x: 1; --tw-scale-y: 1; --tw-pan-x: ; --tw-pan-y: ; --tw-pinch-zoom: ; --tw-scroll-snap-strictness: proximity; --tw-ordinal: ; --tw-slashed-zero: ; --tw-numeric-figure: ; --tw-numeric-spacing: ; --tw-numeric-fraction: ; --tw-ring-inset: ; --tw-ring-offset-width: 0px; --tw-ring-offset-color: #fff; --tw-ring-color: rgb(59 130 246 / .5); --tw-ring-offset-shadow: 0 0 #0000; --tw-ring-shadow: 0 0 #0000; --tw-shadow: 0 0 #0000; --tw-shadow-colored: 0 0 #0000; --tw-blur: ; --tw-brightness: ; --tw-contrast: ; --tw-grayscale: ; --tw-hue-rotate: ; --tw-invert: ; --tw-saturate: ; --tw-sepia: ; --tw-drop-shadow: ; --tw-backdrop-blur: ; --tw-backdrop-brightness: ; --tw-backdrop-contrast: ; --tw-backdrop-grayscale: ; --tw-backdrop-hue-rotate: ; --tw-backdrop-invert: ; --tw-backdrop-opacity: ; --tw-backdrop-saturate: ; --tw-backdrop-sepia: ; font-family: Menlo, Monaco, Consolas, &amp;quot;Courier New&amp;quot;, monospace; font-size: 12.15px; white-space-collapse: preserve;&quot;&gt;&lt;span style=&quot;font-family: Menlo, Monaco, Consolas, &amp;quot;Courier New&amp;quot;, monospace; font-size: 12.15px; white-space-collapse: preserve;&quot;&gt;  Expenses:Daily:餐饮&lt;/span&gt;" style="rounded=0;whiteSpace=wrap;html=1;fillColor=#d5e8d4;strokeColor=#82b366;align=left;spacingLeft=8;" vertex="1" parent="1">
          <mxGeometry x="414" y="340" width="356" height="90" as="geometry" />
        </mxCell>
        <mxCell id="TPlm3mmLFZpDYCI5alrE-15" value="&lt;span style=&quot;font-family: Menlo, Monaco, Consolas, &amp;quot;Courier New&amp;quot;, monospace; font-size: 12.15px; white-space-collapse: preserve;&quot;&gt;2024-08-17 * &quot;麦当劳&quot; &quot;午饭&quot;&lt;br&gt;  Assets:Checking:微信支付:Deposit   -30.00 CNY&lt;br&gt;  Expenses:Daily:餐饮&lt;/span&gt;" style="rounded=0;whiteSpace=wrap;html=1;labelBackgroundColor=none;align=left;spacingLeft=9;fillColor=#d5e8d4;strokeColor=#82b366;" vertex="1" parent="1">
          <mxGeometry x="816" y="207.5" width="360" height="90" as="geometry" />
        </mxCell>
        <mxCell id="TPlm3mmLFZpDYCI5alrE-20" style="edgeStyle=orthogonalEdgeStyle;rounded=0;orthogonalLoop=1;jettySize=auto;html=1;exitX=0.4;exitY=0.1;exitDx=0;exitDy=0;exitPerimeter=0;entryX=0.5;entryY=1;entryDx=0;entryDy=0;" edge="1" parent="1" source="TPlm3mmLFZpDYCI5alrE-18" target="TPlm3mmLFZpDYCI5alrE-15">
          <mxGeometry relative="1" as="geometry" />
        </mxCell>
        <mxCell id="TPlm3mmLFZpDYCI5alrE-18" value="LLM 生成:&lt;br&gt;&lt;div&gt;I will provide you with several reference sets, hoping that you can combine the reference information with the user&#39;s input to piece together a complete accounting record.&amp;nbsp;&amp;nbsp;&lt;/div&gt;&lt;div&gt;......&lt;/div&gt;" style="ellipse;shape=cloud;whiteSpace=wrap;html=1;fillColor=#d5e8d4;strokeColor=#82b366;spacingLeft=56;spacingRight=36;align=left;spacingTop=3;" vertex="1" parent="1">
          <mxGeometry x="824.5" y="310" width="429" height="150" as="geometry" />
        </mxCell>
        <mxCell id="TPlm3mmLFZpDYCI5alrE-19" style="edgeStyle=orthogonalEdgeStyle;rounded=0;orthogonalLoop=1;jettySize=auto;html=1;exitX=1;exitY=0.5;exitDx=0;exitDy=0;entryX=0.085;entryY=0.5;entryDx=0;entryDy=0;entryPerimeter=0;" edge="1" parent="1" source="TPlm3mmLFZpDYCI5alrE-14" target="TPlm3mmLFZpDYCI5alrE-18">
          <mxGeometry relative="1" as="geometry" />
        </mxCell>
      </root>
    </mxGraphModel>
  </diagram>
</mxfile>
